# xmcd
#
# Track frame offsets:
#	150
#	13096
#	26091
#	48452
#	69416
#	91104
#	106861
#	123614
#	142133
#	155393
#	170021
#	186934
#	205160
#	223937
#	256015
#	281496
#
# Disc length: 3968 seconds
#
# Revision: 0
# Processed by: cddbd v1.5.2PL0 Copyright (c) Steve Scherf et al.
# Submitted via: FairStars CD Ripper 1.90
#
DISCID=ea0f7e10
DTITLE=Stevie Wonder - Ballad Collection
DYEAR=1999
DGENRE=Ballad
TTITLE0=You Are The Sunshine Of My Life
TTITLE1=My Cherie Amour
TTITLE2=Golden Lady
TTITLE3=You And I
TTITLE4=If Ever
TTITLE5=Too Shy To Say
TTITLE6=All In Love Is Fair
TTITLE7=For Your Love
TTITLE8=Never Dreamed You'd Leave In Summer
TTITLE9=If It's Magic
TTITLE10=Overjoyed
TTITLE11=Send One Your Love
TTITLE12=Kiss Lonely Goodbye
TTITLE13=Love's In Need Of Love Today
TTITLE14=Ribbon In The Sky
TTITLE15=Stay Gold
EXTD=
EXTT0=
EXTT1=
EXTT2=
EXTT3=
EXTT4=
EXTT5=
EXTT6=
EXTT7=
EXTT8=
EXTT9=
EXTT10=
EXTT11=
EXTT12=
EXTT13=
EXTT14=
EXTT15=
PLAYORDER=
